<svg width="1600" height="339" viewBox="0 0 1600 339" fill="none" xmlns="http://www.w3.org/2000/svg">
<path d="M134.046 1.00002L1 1L0.99998 113.176L134.046 1.00002Z" stroke="#D7D7D7"/>
<path d="M134.046 113.176L1 113.176L0.99998 225.351L134.046 113.176Z" stroke="#D7D7D7"/>
<path d="M134.046 225.352L1 225.352L0.99998 337.527L134.046 225.352Z" stroke="#D7D7D7"/>
<path d="M267.315 1.00002L134.27 1L134.27 113.176L267.315 1.00002Z" stroke="#D7D7D7"/>
<path d="M267.315 113.176L134.27 113.176L134.27 225.351L267.315 113.176Z" stroke="#D7D7D7"/>
<path d="M267.315 225.352L134.27 225.352L134.27 337.527L267.315 225.352Z" stroke="#D7D7D7"/>
<path d="M400.583 1.00002L267.537 1L267.537 113.176L400.583 1.00002Z" stroke="#D7D7D7"/>
<path d="M400.583 113.176L267.537 113.176L267.537 225.351L400.583 113.176Z" stroke="#D7D7D7"/>
<path d="M400.583 225.352L267.537 225.352L267.537 337.527L400.583 225.352Z" stroke="#D7D7D7"/>
<path d="M533.852 1.00002L400.807 1L400.807 113.176L533.852 1.00002Z" stroke="#D7D7D7"/>
<path d="M533.852 113.176L400.807 113.176L400.807 225.351L533.852 113.176Z" stroke="#D7D7D7"/>
<path d="M533.852 225.352L400.807 225.352L400.807 337.527L533.852 225.352Z" stroke="#D7D7D7"/>
<path d="M667.122 1.00002L534.076 1L534.076 113.176L667.122 1.00002Z" stroke="#D7D7D7"/>
<path d="M667.122 113.176L534.076 113.176L534.076 225.351L667.122 113.176Z" stroke="#D7D7D7"/>
<path d="M667.122 225.352L534.076 225.352L534.076 337.527L667.122 225.352Z" stroke="#D7D7D7"/>
<path d="M800.389 1.00002L667.344 1L667.344 113.176L800.389 1.00002Z" stroke="#D7D7D7"/>
<path d="M800.389 113.176L667.344 113.176L667.344 225.351L800.389 113.176Z" stroke="#D7D7D7"/>
<path d="M800.389 225.352L667.344 225.352L667.344 337.527L800.389 225.352Z" stroke="#D7D7D7"/>
<path d="M933.657 1.00002L800.611 1L800.611 113.176L933.657 1.00002Z" stroke="#D7D7D7"/>
<path d="M933.657 113.176L800.611 113.176L800.611 225.351L933.657 113.176Z" stroke="#D7D7D7"/>
<path d="M933.657 225.352L800.611 225.352L800.611 337.527L933.657 225.352Z" stroke="#D7D7D7"/>
<path d="M1066.92 1.00002L933.879 1L933.879 113.176L1066.92 1.00002Z" stroke="#D7D7D7"/>
<path d="M1066.92 113.176L933.879 113.176L933.879 225.351L1066.92 113.176Z" stroke="#D7D7D7"/>
<path d="M1066.92 225.352L933.879 225.352L933.879 337.527L1066.92 225.352Z" stroke="#D7D7D7"/>
<path d="M1200.19 1.00002L1067.15 1L1067.15 113.176L1200.19 1.00002Z" stroke="#D7D7D7"/>
<path d="M1200.19 113.176L1067.15 113.176L1067.15 225.351L1200.19 113.176Z" stroke="#D7D7D7"/>
<path d="M1200.19 225.352L1067.15 225.352L1067.15 337.527L1200.19 225.352Z" stroke="#D7D7D7"/>
<path d="M1333.46 1.00002L1200.42 1L1200.42 113.176L1333.46 1.00002Z" stroke="#D7D7D7"/>
<path d="M1333.46 113.176L1200.42 113.176L1200.42 225.351L1333.46 113.176Z" stroke="#D7D7D7"/>
<path d="M1333.46 225.352L1200.42 225.352L1200.42 337.527L1333.46 225.352Z" stroke="#D7D7D7"/>
<path d="M1466.73 1.00002L1333.69 1L1333.69 113.176L1466.73 1.00002Z" stroke="#D7D7D7"/>
<path d="M1466.73 113.176L1333.69 113.176L1333.69 225.351L1466.73 113.176Z" stroke="#D7D7D7"/>
<path d="M1466.73 225.352L1333.69 225.352L1333.69 337.527L1466.73 225.352Z" stroke="#D7D7D7"/>
<path d="M1600 1.00002L1466.95 1L1466.95 113.176L1600 1.00002Z" stroke="#D7D7D7"/>
<path d="M1600 113.176L1466.95 113.176L1466.95 225.351L1600 113.176Z" stroke="#D7D7D7"/>
<path d="M1600 225.352L1466.95 225.352L1466.95 337.527L1600 225.352Z" stroke="#D7D7D7"/>
<path d="M1467 113L1334 113L1334 226L1467 113Z" fill="#6750F7"/>
</svg>
