<svg width="115" height="86" viewBox="0 0 115 86" fill="none" xmlns="http://www.w3.org/2000/svg">
<g clip-path="url(#clip0)">
<path d="M54.9685 46.7903C55.5041 47.2225 55.8254 47.4444 56.1092 47.7183C58.6806 50.1684 60.6812 50.4938 63.6723 48.5607C65.1748 47.5818 66.456 46.2182 67.7394 44.937C71.4291 41.2627 73.593 40.7952 78.147 43.1708C81.3035 44.8144 84.4239 45.0978 87.7215 43.7437C91.8112 42.0653 95.9073 42.2743 99.7631 44.3045C103.058 46.0342 106.142 48.1649 109.391 49.9905C110.041 50.3492 110.99 50.1785 111.81 50.2513C111.51 49.4732 111.422 48.4492 110.863 47.9715C108.148 45.6757 105.478 43.2428 102.461 41.3941C97.6667 38.4524 92.5878 37.5101 87.0201 39.8076C85.177 40.5699 82.7271 39.861 80.557 39.8217C80.4842 39.8212 80.4119 39.7479 80.3311 39.7185C71.9899 36.5289 69.1969 37.6075 64.7712 43.0749C61.7057 46.866 59.8952 46.6642 56.9939 42.8424C56.8455 42.645 56.6874 42.4502 56.5225 42.2678C55.065 40.6494 53.8408 40.6892 52.8061 42.5655C51.8896 44.2324 51.266 46.0565 50.3988 47.7512C49.8823 48.7669 49.2791 49.8068 48.4799 50.5899C46.2619 52.7645 44.2591 52.3567 43.6011 49.322C42.8469 45.8677 42.507 42.2981 42.3235 38.768C42.0149 32.9994 42.0211 27.2054 41.7414 21.4288C41.7036 20.7334 40.6626 20.089 40.0819 19.4203C39.6102 20.1122 38.8558 20.7582 38.7326 21.5087C38.443 23.3021 38.351 25.1339 38.351 26.9608C38.3409 35.9842 38.6508 45.0015 36.7484 53.9392C35.076 61.7645 33.4218 69.5432 28.7747 76.266C25.5272 80.9694 21.542 81.0098 18.1359 76.4565C17.5927 75.7358 17.1105 74.9358 16.792 74.0903C12.5287 62.8416 10.1445 51.1839 9.58978 39.1622C9.4921 36.9472 9.7477 34.6962 10.0483 32.4949C10.3089 30.5228 10.9634 28.5862 11.1924 26.6125C11.2686 25.9166 10.5829 25.1317 10.2501 24.3836C9.69752 25.0461 8.80609 25.6472 8.68983 26.3854C8.02417 30.37 6.84415 34.4458 7.14305 38.3902C7.79581 46.8864 9.08073 55.3416 10.4593 63.7603C11.0992 67.6616 12.3053 71.5091 13.6538 75.2339C15.6253 80.6745 19.8644 83.7086 24.6165 83.4028C29.2862 83.0992 31.7251 79.742 33.7206 76.1346C37.4684 69.3508 38.845 61.8051 40.2515 54.2926C40.394 53.5367 40.5873 52.777 40.7982 51.8567C41.3139 52.1802 41.6073 52.2646 41.6994 52.4466C44.2966 57.7856 49.837 57.1046 52.3621 51.9692C53.1935 50.2948 54.0468 48.6248 54.9685 46.7903Z" fill="white"/>
<path d="M54.9685 46.7902C54.0468 48.6246 53.1935 50.2947 52.3648 51.9787C49.8397 57.1141 44.2966 57.7855 41.7021 52.4561C41.6099 52.2742 41.3192 52.1994 40.8009 51.8662C40.59 52.7865 40.4063 53.5435 40.2542 54.3021C38.8477 61.8146 37.4684 69.3507 33.7233 76.1441C31.7278 79.7515 29.2889 83.1087 24.6192 83.4123C19.8671 83.7181 15.628 80.684 13.6565 75.2434C12.308 71.5186 11.0895 67.6642 10.462 63.7698C9.09304 55.3484 7.80813 46.8933 7.14573 38.3997C6.84415 34.4457 8.02417 30.3699 8.68983 26.3853C8.80609 25.6471 9.69752 25.046 10.2404 24.3862C10.5733 25.1343 11.2589 25.9192 11.1828 26.6151C10.9634 28.5861 10.3089 30.5227 10.0483 32.4948C9.76001 34.703 9.4921 36.9471 9.58977 39.1621C10.1419 51.1742 12.5287 62.8415 16.7824 74.0928C17.0982 74.9288 17.5927 75.7357 18.1263 76.4591C21.5324 81.0123 25.5176 80.972 28.765 76.2686C33.4121 69.5458 35.0637 61.7575 36.7388 53.9418C38.6508 45.0014 38.3409 35.9841 38.3414 26.9634C38.344 25.1461 38.4334 23.3047 38.723 21.5113C38.8462 20.7607 39.6006 20.1147 40.0723 19.4229C40.6529 20.0916 41.6939 20.736 41.7318 21.4313C42.0211 27.2053 42.0026 32.9923 42.3138 38.7706C42.5001 42.3103 42.84 45.8799 43.5914 49.3246C44.2591 52.3566 46.2619 52.7644 48.4703 50.5925C49.2695 49.8094 49.87 48.7599 50.3892 47.7538C51.2564 46.0591 51.8773 44.2253 52.7965 42.5681C53.8408 40.6891 55.0553 40.652 56.5128 42.2704C56.6778 42.4528 56.8358 42.6476 56.9842 42.845C59.8883 46.6765 61.6891 46.8809 64.7615 43.0775C69.1873 37.6101 71.9899 36.5287 80.3214 39.7211C80.4023 39.7504 80.4746 39.8237 80.5474 39.8242C82.7175 39.8636 85.1674 40.5725 87.0104 39.8102C92.5782 37.5126 97.664 38.4426 102.452 41.3967C105.468 43.2454 108.139 45.6783 110.854 47.9741C111.41 48.4422 111.491 49.4784 111.8 50.2539C110.99 50.1784 110.034 50.3615 109.381 49.993C106.133 48.1675 103.048 46.0367 99.7535 44.3071C95.8977 42.2769 91.8042 42.0775 87.7119 43.7463C84.4142 45.1004 81.2939 44.817 78.1374 43.1734C73.5737 40.8005 71.4194 41.2653 67.7298 44.9396C66.4464 46.2208 65.1652 47.5844 63.6627 48.5632C60.6716 50.4963 58.671 50.171 56.0996 47.7209C55.8254 47.4443 55.5014 47.2128 54.9685 46.7902Z" fill="black"/>
</g>
<defs>
<clipPath id="clip0">
<rect width="101.55" height="60.92" fill="white" transform="translate(0 27.2373) rotate(-15.5583)"/>
</clipPath>
</defs>
</svg>
